<?xml version="1.0" encoding="UTF-8" standalone="yes"?>
<svg version="1.2" baseProfile="tiny-ps" viewBox="0 0 500 500" xmlns="http://www.w3.org/2000/svg">
  <title>bimi-svg-tiny-12-ps</title>
  <rect width="500" height="500" fill="#ffffff"/>
  <rect fill="#00a7c3" x="155.3" y="73" width="24.9" height="24.9" rx="0.5" transform="translate(109.6 -93.6) rotate(45)"/>
  <rect fill="#00a7c3" x="154.9" y="164.1" width="20.3" height="20.3" rx="0.5" transform="translate(171.6 -65.7) rotate(45)"/>
  <rect fill="#00a7c3" x="28.8" y="218.9" width="20.3" height="20.3" rx="0.5" transform="translate(173.4 39.6) rotate(45)"/>
  <rect fill="#00a7c3" x="84.3" y="112.1" width="14" height="14" rx="0.5" transform="translate(111 -29.7) rotate(45)"/>
  <rect fill="#00a7c3" x="359.7" y="100.3" width="20.3" height="20.3" rx="0.5" transform="translate(186.4 -229.2) rotate(45)"/>
  <rect fill="#00a7c3" x="452.2" y="86.9" width="15.7" height="15.7" rx="0.5" transform="translate(201.8 -297.6) rotate(45)"/>
  <rect fill="#00a7c3" x="411.8" y="192.8" width="15.7" height="15.7" rx="0.5" transform="translate(264.8 -238) rotate(45)"/>
  <path fill="#e9008c" d="M263.1,132c-16.4-3.7-32.3-3.5-47.1-.3,1.7.8,3.5,1.7,5.2,2.6,14.1,4.8,26.2,12.9,36.4,24.2,4.1,4.5,7.4,8.6,10.3,12.4,1.4,1.9,3.3,4.4,5.6,7.8,2.5,3.8,5.6,9,8.7,15.7,1.7,4.8,3.7,11.2,5.2,18.7,2.7,13.7,2.6,24.2,2.6,26.7-.2,10.2-2.4,20.4-4.6,30.4-3.4,9.3-7.1,18.6-12,27.2-8.9,15.9-26,31.8-41.8,40.5-5.7,3.1-11.3,5.6-16.9,7.7,7.2,1.6,14.8,2.6,22.5,2.7,63.5,1,115.2-52.3,111.1-116.9-3.1-48-38.2-88.9-85.1-99.5Z"/>
  <path fill="#00a7c3" d="M213.6,82.8c.4,0,.9.2,1.3.5,1,.8,1,2.3,1,2.8,0,3,.3,16.3.5,34.3.9,4.2,1.9,8.3,2.8,12.5-.9,79.6-1.9,159.2-2.8,238.8h-3.1c0-96.3.2-192.7.3-289Z"/>
  <path fill="#00a7c3" d="M213.8,88.9c2.6-8.4,24.5,5,29.5,6.4,14.9,4.3,25.8,1.4,39.5-4.9-3.7,12.1-14.2,24.6-28.1,24.9-3.8,0-8.7-1.8-12.7-2.1-11.3-.8-19.6.7-28.1,8.3v-32.6Z"/>
  <path fill="#e9008c" d="M225,369.8c2.5.4,4.3.6,5.7.7,9.2,1,36.6,3.4,66.5-10.5,30.5-14.2,46.4-37.6,52.2-47.3l10.6-20.3c-5.2,43.2-36.1,80-76,95.9-30-.9-60.2-2.2-90.2-2.6-23.1-11.8-43.8-29-56.4-52.1-5-9.1-16.2-29.4-15.6-57,.2-9.8,1.9-17.8,3.4-23.5.3-.8.7-1.7.9-1.6.3,0,.2,2.3.1,2.7-.3,8.4,2.9,30.4,13.9,52.1,2.1,4.2,5.7,10.9,11.4,18.3,7.6,9.9,31.8,38.8,73.7,45.2Z"/>
  <path fill="#00a7c3" d="M202.2,385.3c75.7,3.5,153.1,2.4,228.6,10.7,2.6.2,10.3,1.7,3.4,3.2-48.4,7-97.6,5.7-146.2,7-4.8.5-11,.4-15.1,2.1-1.2.7.2,1.5,2.6,2.6,8.2,3.6-3.6,4.6-6.3,5.1-37.1,5.7-51-5.5-78.5-1.3-11.1,1.4-24.2,7.2-35,2.5-2.8-1.3-2.8-3.1-1.8-5.2.9-1.8,1.2-3.3-1-4.3-32.1-6.4-66.1-2.7-98.5-8.8-4.7-1-11.8-2.6-15.7-4-7.4-3.5-2.4-5.7,5.5-5.6,31-1.5,63.3.8,95.5,1.4,5.6,0,9.3-3.9,14.3-5.4,13-2.3,35.5-.1,47.2-.1h1Z"/>
  <path fill="#00a7c3" d="M364.8,412.4c-6.9,3.7-17.2,2.8-25.6,3.4-8-.5-18,.4-24.8-3.3.5-1.1,2.9-1.3,4.5-1.6,14.5-1.6,31.4-2.3,45.7,1.3v.2Z"/>
  <path fill="#00a7c3" d="M124.5,412.3c-2.9,2.9-9.7,2.9-14.5,3.4-4.9-.2-11.3.3-14.8-3.2,2.9-3,9.5-2.5,14-2.8,5,.2,10.5.2,15.1,2.3l.2.3Z"/>
  <circle fill="#00a7c3" cx="214.7" cy="81.1" r="3.6"/>
</svg>
